<mxfile host="app.diagrams.net" agent="Mozilla/5.0 (Macintosh; Intel Mac OS X 10_15_7) AppleWebKit/537.36 (KHTML, like Gecko) Chrome/127.0.0.0 Safari/537.36" version="24.7.6">
  <diagram name="페이지-1" id="gEVF9tBYOcruon_PCZiV">
    <mxGraphModel dx="794" dy="540" grid="1" gridSize="10" guides="1" tooltips="1" connect="1" arrows="1" fold="1" page="1" pageScale="1" pageWidth="827" pageHeight="1169" math="0" shadow="0">
      <root>
        <mxCell id="0" />
        <mxCell id="1" parent="0" />
        <mxCell id="D_jV_ZvVJkU1zCtAop03-5" style="edgeStyle=orthogonalEdgeStyle;rounded=0;orthogonalLoop=1;jettySize=auto;html=1;" edge="1" parent="1">
          <mxGeometry relative="1" as="geometry">
            <mxPoint x="560" y="160" as="targetPoint" />
            <mxPoint x="560" y="250" as="sourcePoint" />
          </mxGeometry>
        </mxCell>
        <mxCell id="D_jV_ZvVJkU1zCtAop03-7" value="Server" style="text;html=1;align=center;verticalAlign=middle;resizable=0;points=[];autosize=1;strokeColor=none;fillColor=none;" vertex="1" parent="1">
          <mxGeometry x="530" y="328" width="60" height="30" as="geometry" />
        </mxCell>
        <mxCell id="D_jV_ZvVJkU1zCtAop03-8" value="" style="group" vertex="1" connectable="0" parent="1">
          <mxGeometry x="370" y="279" width="100" height="78" as="geometry" />
        </mxCell>
        <mxCell id="D_jV_ZvVJkU1zCtAop03-9" value="" style="fillColor=#28A8E0;verticalLabelPosition=bottom;sketch=0;html=1;strokeColor=#ffffff;verticalAlign=top;align=center;points=[[0.145,0.145,0],[0.5,0,0],[0.855,0.145,0],[1,0.5,0],[0.855,0.855,0],[0.5,1,0],[0.145,0.855,0],[0,0.5,0]];pointerEvents=1;shape=mxgraph.cisco_safe.compositeIcon;bgIcon=ellipse;resIcon=mxgraph.cisco_safe.capability.load_balancer;" vertex="1" parent="D_jV_ZvVJkU1zCtAop03-8">
          <mxGeometry x="28.5" width="43" height="43" as="geometry" />
        </mxCell>
        <mxCell id="D_jV_ZvVJkU1zCtAop03-10" value="Load Balancer" style="text;html=1;align=center;verticalAlign=middle;resizable=0;points=[];autosize=1;strokeColor=none;fillColor=none;" vertex="1" parent="D_jV_ZvVJkU1zCtAop03-8">
          <mxGeometry y="48" width="100" height="30" as="geometry" />
        </mxCell>
        <mxCell id="D_jV_ZvVJkU1zCtAop03-12" value="" style="outlineConnect=0;dashed=0;verticalLabelPosition=bottom;verticalAlign=top;align=center;html=1;shape=mxgraph.aws3.batch;fillColor=#F58534;gradientColor=none;" vertex="1" parent="1">
          <mxGeometry x="671" y="60" width="66.5" height="60" as="geometry" />
        </mxCell>
        <mxCell id="D_jV_ZvVJkU1zCtAop03-13" style="edgeStyle=orthogonalEdgeStyle;rounded=0;orthogonalLoop=1;jettySize=auto;html=1;" edge="1" parent="1">
          <mxGeometry relative="1" as="geometry">
            <mxPoint x="440" y="302" as="sourcePoint" />
            <Array as="points">
              <mxPoint x="490" y="302" />
              <mxPoint x="490" y="302" />
            </Array>
            <mxPoint x="535" y="302" as="targetPoint" />
          </mxGeometry>
        </mxCell>
        <mxCell id="D_jV_ZvVJkU1zCtAop03-14" value="Cleanup Batch" style="text;html=1;align=center;verticalAlign=middle;resizable=0;points=[];autosize=1;strokeColor=none;fillColor=none;" vertex="1" parent="1">
          <mxGeometry x="656" y="120" width="100" height="30" as="geometry" />
        </mxCell>
        <mxCell id="D_jV_ZvVJkU1zCtAop03-15" style="edgeStyle=orthogonalEdgeStyle;rounded=0;orthogonalLoop=1;jettySize=auto;html=1;entryX=0;entryY=0.5;entryDx=0;entryDy=0;entryPerimeter=0;exitX=0.98;exitY=0.51;exitDx=0;exitDy=0;exitPerimeter=0;" edge="1" parent="1">
          <mxGeometry relative="1" as="geometry">
            <mxPoint x="329" y="309.5" as="sourcePoint" />
            <mxPoint x="398.5" y="306.5" as="targetPoint" />
            <Array as="points">
              <mxPoint x="329" y="306" />
            </Array>
          </mxGeometry>
        </mxCell>
        <mxCell id="D_jV_ZvVJkU1zCtAop03-16" value="Metadata cache" style="text;html=1;align=center;verticalAlign=middle;resizable=0;points=[];autosize=1;strokeColor=none;fillColor=none;" vertex="1" parent="1">
          <mxGeometry x="639" y="349" width="110" height="30" as="geometry" />
        </mxCell>
        <mxCell id="D_jV_ZvVJkU1zCtAop03-17" value="" style="outlineConnect=0;dashed=0;verticalLabelPosition=bottom;verticalAlign=top;align=center;html=1;shape=mxgraph.aws3.cache_node;fillColor=#2E73B8;gradientColor=none;" vertex="1" parent="1">
          <mxGeometry x="664" y="289" width="60" height="63" as="geometry" />
        </mxCell>
        <mxCell id="D_jV_ZvVJkU1zCtAop03-20" value="" style="fontColor=#0066CC;verticalAlign=top;verticalLabelPosition=bottom;labelPosition=center;align=center;html=1;outlineConnect=0;fillColor=#CCCCCC;strokeColor=#6881B3;gradientColor=none;gradientDirection=north;strokeWidth=2;shape=mxgraph.networks.storage;" vertex="1" parent="1">
          <mxGeometry x="805" y="210" width="70" height="57" as="geometry" />
        </mxCell>
        <mxCell id="D_jV_ZvVJkU1zCtAop03-21" value="Metadata storage(SQL or NoSQL)" style="text;html=1;align=center;verticalAlign=middle;resizable=0;points=[];autosize=1;strokeColor=none;fillColor=none;" vertex="1" parent="1">
          <mxGeometry x="734" y="275" width="210" height="30" as="geometry" />
        </mxCell>
        <mxCell id="D_jV_ZvVJkU1zCtAop03-26" style="edgeStyle=orthogonalEdgeStyle;rounded=0;orthogonalLoop=1;jettySize=auto;html=1;entryX=0;entryY=0.86;entryDx=0;entryDy=0;entryPerimeter=0;exitX=0.485;exitY=0.9;exitDx=0;exitDy=0;exitPerimeter=0;" edge="1" parent="1" source="D_jV_ZvVJkU1zCtAop03-14">
          <mxGeometry relative="1" as="geometry">
            <mxPoint x="689" y="162" as="sourcePoint" />
            <mxPoint x="805" y="232.01999999999998" as="targetPoint" />
            <Array as="points">
              <mxPoint x="705" y="232" />
            </Array>
          </mxGeometry>
        </mxCell>
        <mxCell id="D_jV_ZvVJkU1zCtAop03-36" value="" style="sketch=0;outlineConnect=0;fontColor=#232F3E;gradientColor=none;fillColor=#232F3D;strokeColor=none;dashed=0;verticalLabelPosition=bottom;verticalAlign=top;align=center;html=1;fontSize=12;fontStyle=0;aspect=fixed;pointerEvents=1;shape=mxgraph.aws4.traditional_server;" vertex="1" parent="1">
          <mxGeometry x="537.5" y="250" width="45" height="78" as="geometry" />
        </mxCell>
        <mxCell id="D_jV_ZvVJkU1zCtAop03-37" style="edgeStyle=orthogonalEdgeStyle;rounded=0;orthogonalLoop=1;jettySize=auto;html=1;" edge="1" parent="1">
          <mxGeometry relative="1" as="geometry">
            <mxPoint x="582.5" y="310.5" as="sourcePoint" />
            <mxPoint x="652.5" y="309.5" as="targetPoint" />
            <Array as="points">
              <mxPoint x="582.5" y="309.5" />
            </Array>
          </mxGeometry>
        </mxCell>
        <mxCell id="D_jV_ZvVJkU1zCtAop03-46" value="" style="sketch=0;outlineConnect=0;fontColor=#232F3E;gradientColor=none;fillColor=#232F3D;strokeColor=none;dashed=0;verticalLabelPosition=bottom;verticalAlign=top;align=center;html=1;fontSize=12;fontStyle=0;aspect=fixed;pointerEvents=1;shape=mxgraph.aws4.traditional_server;" vertex="1" parent="1">
          <mxGeometry x="537.5" y="70" width="45" height="78" as="geometry" />
        </mxCell>
        <mxCell id="D_jV_ZvVJkU1zCtAop03-48" value="Zookeeper" style="text;html=1;align=center;verticalAlign=middle;resizable=0;points=[];autosize=1;strokeColor=none;fillColor=none;" vertex="1" parent="1">
          <mxGeometry x="520" y="140" width="80" height="30" as="geometry" />
        </mxCell>
        <mxCell id="D_jV_ZvVJkU1zCtAop03-50" value="User" style="points=[[0.35,0,0],[0.98,0.51,0],[1,0.71,0],[0.67,1,0],[0,0.795,0],[0,0.65,0]];verticalLabelPosition=bottom;sketch=0;html=1;verticalAlign=top;aspect=fixed;align=center;pointerEvents=1;shape=mxgraph.cisco19.user;fillColor=#005073;strokeColor=none;" vertex="1" parent="1">
          <mxGeometry x="280" y="278" width="50" height="50" as="geometry" />
        </mxCell>
      </root>
    </mxGraphModel>
  </diagram>
</mxfile>
